<svg width="96" height="96" fill="none" xmlns="http://www.w3.org/2000/svg">
    <path
        d="M96 41.188v13.874c0 .5-.167.98-.5 1.438-.333.458-.75.73-1.25.813l-11.563 1.75c-.791 2.25-1.604 4.145-2.437 5.687 1.458 2.083 3.688 4.958 6.688 8.625.416.5.624 1.02.624 1.563 0 .541-.187 1.02-.562 1.437-1.125 1.542-3.188 3.792-6.188 6.75-3 2.958-4.958 4.438-5.874 4.438-.5 0-1.042-.188-1.626-.563l-8.624-6.75A35.663 35.663 0 0159 82.625c-.667 5.667-1.27 9.542-1.813 11.625-.291 1.167-1.041 1.75-2.25 1.75H41.063a2.362 2.362 0 01-1.532-.531c-.437-.354-.677-.802-.718-1.344l-1.75-11.5c-2.042-.667-3.917-1.438-5.626-2.313L22.626 87c-.417.375-.938.563-1.563.563-.583 0-1.104-.23-1.562-.688-5.25-4.75-8.688-8.25-10.313-10.5a2.444 2.444 0 01-.437-1.438c0-.5.167-.979.5-1.437.625-.875 1.688-2.26 3.188-4.156 1.5-1.896 2.624-3.365 3.374-4.406-1.124-2.084-1.979-4.146-2.562-6.188L1.812 57.062a1.97 1.97 0 01-1.312-.78 2.363 2.363 0 01-.5-1.47V40.938c0-.5.167-.98.5-1.438.333-.458.73-.73 1.188-.813l11.624-1.75c.584-1.916 1.396-3.833 2.438-5.75-1.667-2.375-3.896-5.25-6.688-8.625-.416-.5-.624-1-.624-1.5 0-.416.187-.895.562-1.437 1.083-1.5 3.135-3.74 6.156-6.719s4.99-4.469 5.906-4.469c.542 0 1.084.209 1.625.626l8.625 6.687A35.663 35.663 0 0137 13.375c.667-5.667 1.27-9.542 1.813-11.625C39.103.583 39.853 0 41.063 0h13.874c.584 0 1.094.177 1.532.531.437.354.677.802.718 1.344l1.75 11.5c2.042.667 3.917 1.438 5.626 2.313L73.436 9c.376-.375.876-.563 1.5-.563.542 0 1.063.209 1.563.626 5.375 4.958 8.813 8.5 10.313 10.624.291.334.437.792.437 1.375 0 .5-.167.98-.5 1.438-.625.875-1.688 2.26-3.188 4.156-1.5 1.896-2.624 3.365-3.374 4.407 1.083 2.083 1.937 4.125 2.562 6.125l11.438 1.75c.541.083.979.343 1.312.78.333.438.5.928.5 1.47z"
        fill="url(#paint0_linear)" />
    <path fill-rule="evenodd" clip-rule="evenodd"
        d="M31.413 50.569c1.928-1.129 1.93-4.782.007-8.161-1.923-3.379-5.045-5.203-6.972-4.074-1.928 1.129-1.931 4.782-.008 8.161 1.924 3.379 5.046 5.203 6.973 4.074zm.012 7.234c1.923 3.38 1.92 7.033-.007 8.162-1.928 1.128-5.05-.696-6.973-4.075-1.924-3.378-1.92-7.032.007-8.16 1.927-1.13 5.05.695 6.973 4.074zm13.134 7.702c1.924 3.378 1.92 7.032-.007 8.161-1.927 1.129-5.049-.696-6.972-4.074-1.924-3.379-1.92-7.033.007-8.161 1.927-1.129 5.049.695 6.972 4.074zm-.004-15.395c1.924 3.378 1.92 7.032-.007 8.16-1.927 1.13-5.05-.695-6.973-4.073-1.923-3.38-1.92-7.033.008-8.161 1.927-1.129 5.049.695 6.972 4.074zM71.552 46.499c1.923-3.38 1.92-7.036-.007-8.165-1.928-1.129-5.05.696-6.973 4.076s-1.92 7.036.007 8.165c1.928 1.129 5.05-.696 6.973-4.076zm0 7.234c1.928 1.13 1.931 4.785.007 8.165-1.923 3.38-5.045 5.205-6.972 4.076-1.927-1.13-1.93-4.785-.007-8.165 1.923-3.38 5.045-5.205 6.972-4.076zM58.42 61.425c1.928 1.13 1.931 4.785.008 8.165-1.924 3.38-5.045 5.205-6.973 4.076-1.927-1.13-1.93-4.785-.007-8.165 1.923-3.38 5.045-5.205 6.972-4.076zm-.007-15.399c1.927 1.13 1.93 4.785.007 8.165-1.923 3.38-5.045 5.205-6.972 4.076-1.928-1.13-1.931-4.785-.008-8.165 1.924-3.38 5.046-5.205 6.973-4.076zM54.92 25.165c0 2.3-3.102 4.164-6.928 4.164-3.827 0-6.93-1.864-6.93-4.164S44.166 21 47.993 21c3.826 0 6.928 1.864 6.928 4.165zM41.857 32.99c0 2.3-3.102 4.165-6.928 4.165-3.827 0-6.929-1.865-6.929-4.165s3.102-4.164 6.929-4.164c3.826 0 6.928 1.864 6.928 4.164zm19.214 4.165c3.827 0 6.929-1.865 6.929-4.165s-3.102-4.164-6.929-4.164c-3.826 0-6.928 1.864-6.928 4.164s3.102 4.165 6.928 4.165zm-6.15 3.68c0 2.3-3.103 4.164-6.93 4.164-3.826 0-6.928-1.864-6.928-4.164s3.102-4.165 6.928-4.165c3.827 0 6.93 1.864 6.93 4.165z"
        fill="#fff" />
    <defs>
        <linearGradient id="paint0_linear" x1="96.208" y1="112.368" x2="-1.474" y2="111.086"
            gradientUnits="userSpaceOnUse">
            <stop stop-color="#12F4D8" />
            <stop offset=".526" stop-color="#0183F6" />
            <stop offset="1" stop-color="#BE93DE" />
        </linearGradient>
    </defs>
</svg>
